# Blender v2.93.4 OBJ File: 'birdlow poly.blend'
# www.blender.org
o Cube
v 0.281222 0.210910 -1.168585
v 0.281223 -0.210910 -1.168585
v 0.317696 0.238264 1.154887
v 0.317696 -0.238264 1.154887
v -0.281222 0.210910 -1.168585
v -0.281223 -0.210910 -1.168585
v -0.317696 0.238264 1.154887
v -0.317696 -0.238264 1.154887
v 0.000000 -0.257128 -1.302488
v 0.342848 -0.000000 -1.302488
v -0.342848 -0.000000 -1.302488
v 0.000000 0.290477 1.306157
v 0.000000 -0.290477 1.306157
v 0.000000 0.257128 -1.302488
v 0.000000 0.000000 -1.583497
v -0.376801 0.282591 0.718550
v 0.376801 0.282591 0.718550
v 0.355755 0.267789 -0.606695
v 0.560144 0.426995 0.000000
v -0.355755 0.267755 -0.606695
v -0.560144 0.426965 0.000000
v -0.355755 -0.266139 -0.606695
v 0.355755 -0.266105 -0.606695
v 0.376801 -0.282591 0.718550
v 0.560144 -0.413281 -0.000000
v 0.000000 0.465362 0.638316
v 0.000000 0.461360 -0.512315
v 0.000000 0.566099 0.000000
v -0.376801 -0.282591 0.718550
v -0.560144 -0.413311 -0.000000
v 0.000000 -0.465362 0.638316
v 0.000000 -0.461360 -0.512315
v 0.000000 -0.566098 -0.000000
v 0.620503 0.010016 0.638316
v 0.615167 0.015760 -0.512315
v 0.754823 0.026671 0.000000
v 0.372824 0.049592 1.274672
v 0.372824 -0.049592 1.274672
v 0.422906 0.000000 1.241114
v 0.378827 -0.000000 1.287713
v 0.000000 0.046965 1.572286
v 0.000000 -0.046965 1.572286
v 0.604358 0.067773 2.009074
v 0.614088 -0.000000 2.004979
v 0.604358 -0.067773 2.009074
v 0.000000 0.225603 2.570261
v 0.000000 0.161421 2.563585
v 0.000000 0.097238 2.570261
v 2.741866 0.227627 1.032095
v 2.507221 0.227718 -0.375586
v 2.770150 0.252875 0.267988
v 2.171947 0.161096 -0.246112
v 1.465907 0.109001 -0.246112
v 1.327377 0.076976 -0.829526
v 1.943928 0.111959 -0.638106
v 2.041064 0.118157 0.332043
v 1.332564 0.068911 0.255475
v -0.620503 0.009972 0.638316
v -0.615167 0.015677 -0.512315
v -0.754823 0.026555 0.000000
v -0.372824 0.049592 1.274672
v -0.372824 -0.049592 1.274672
v -0.422906 0.000000 1.241114
v -0.378827 -0.000000 1.287713
v -0.604358 0.067773 2.009074
v -0.614088 -0.000000 2.004979
v -0.604358 -0.067773 2.009074
v -2.739964 0.239530 1.032095
v -2.505170 0.241336 -0.375586
v -2.767948 0.266488 0.267988
v -2.170662 0.170835 -0.246112
v -1.465907 0.109001 -0.246112
v -1.327434 0.077002 -0.829526
v -1.943508 0.115812 -0.638106
v -2.040447 0.123287 0.332043
v -1.332612 0.068981 0.255475
v -1.114056 0.090513 -0.124334
v -0.980506 0.041329 0.444908
v -0.975030 0.063938 -0.672567
v -1.821465 0.108842 -0.246112
v -1.636300 0.089933 -0.733816
v -1.688041 0.085706 0.293759
v -2.224759 0.175217 -0.506846
v -2.468783 0.224219 0.010938
v -2.389969 0.185252 0.682069
v 1.110365 0.090233 -0.123056
v 0.976757 0.041206 0.446895
v 0.971282 0.063969 -0.670920
v 1.821474 0.108733 -0.246112
v 1.636329 0.089099 -0.733816
v 1.688104 0.084548 0.293759
v 2.226037 0.165813 -0.506846
v 2.470600 0.212052 0.010938
v 2.391296 0.176179 0.682069
vt 0.370976 0.407750
vt 0.371926 0.406126
vt 0.371072 0.407464
vt 0.371052 0.405840
vt 0.366170 0.408129
vt 0.367981 0.404714
vt 0.363472 0.427612
vt 0.362158 0.439391
vt 0.357402 0.433922
vt 0.352812 0.421059
vt 0.362641 0.418447
vt 0.358285 0.424399
vt 0.376424 0.410736
vt 0.372852 0.406727
vt 0.371769 0.405242
vt 0.372338 0.412652
vt 0.371218 0.409720
vt 0.367482 0.412321
vt 0.367081 0.412790
vt 0.367344 0.412158
vt 0.346736 0.436171
vt 0.350085 0.435964
vt 0.347998 0.438961
vt 0.369214 0.414537
vt 0.375077 0.420818
vt 0.367906 0.419302
vt 0.351986 0.436684
vt 0.351390 0.438772
vt 0.348544 0.434650
vt 0.354453 0.429538
vt 0.358232 0.424151
vt 0.345059 0.437939
vt 0.684905 0.000155
vt 0.328878 0.435787
vt 0.350267 0.441021
vt 0.347233 0.440158
vt 0.341423 0.426597
vt 0.358048 0.453301
vt 0.384000 0.412266
vt 0.354978 0.408293
vt 0.364649 0.411442
vt 0.367691 0.412333
vt 0.359830 0.414089
vt 0.387157 0.443696
vt 0.345251 0.416578
vt 0.370375 0.432352
vt 0.325823 0.406029
vt 0.358958 0.395072
vt 0.000155 0.883067
vt 0.370911 0.407455
vt 0.369298 0.407976
vt 0.371208 0.407100
vt 0.371833 0.406229
vt 0.371157 0.407208
vt 0.372495 0.405349
vt 0.371383 0.406870
vt 0.349032 0.428724
vt 0.371067 0.407268
vt 0.808732 0.091048
vt 0.731249 0.097586
vt 0.848306 0.021938
vt 0.943854 0.082873
vt 0.999845 0.000155
vt 0.832147 0.365678
vt 0.898631 0.308368
vt 0.949238 0.371409
vt 0.782079 0.230155
vt 0.887864 0.165591
vt 0.893247 0.236979
vt 0.729362 0.413083
vt 0.795000 0.300152
vt 0.700438 0.220202
vt 0.769158 0.160158
vt 0.808732 0.863895
vt 0.731249 0.857356
vt 0.715844 0.796048
vt 0.943854 0.872069
vt 0.848306 0.933005
vt 0.898631 0.646574
vt 0.831761 0.589945
vt 0.948712 0.584188
vt 0.887864 0.789352
vt 0.782079 0.724788
vt 0.893247 0.717963
vt 0.795000 0.654790
vt 0.728903 0.542527
vt 0.700438 0.734740
vt 0.692827 0.670417
vt 0.773508 0.477626
vt 0.869295 0.523740
vt 0.999845 0.520493
vt 0.685215 0.606093
vt 0.769158 0.794785
vt 0.773508 0.477316
vt 0.869295 0.431203
vt 0.999845 0.434450
vt 0.692827 0.284526
vt 0.715844 0.158894
vt 0.085302 0.152662
vt 0.684905 0.625488
vt 0.685215 0.348849
vt 0.999845 0.954787
vn 0.6796 0.0533 0.7317
vn 0.4277 -0.5702 0.7014
vn -0.3740 0.8584 -0.3512
vn -0.8997 -0.3982 0.1790
vn 0.7651 0.4893 0.4186
vn 0.7651 -0.4893 0.4186
vn 0.4708 0.6509 0.5956
vn -0.7016 -0.2594 0.6637
vn -0.4841 -0.6455 -0.5907
vn -0.4063 0.9019 0.1467
vn -0.2681 0.9327 -0.2411
vn -0.8554 -0.4317 -0.2862
vn -0.8716 0.4238 -0.2466
vn 0.7525 -0.6382 -0.1625
vn 0.8470 0.4384 -0.3007
vn 0.2681 -0.9327 -0.2411
vn 0.4420 0.8847 -0.1482
vn 0.4063 0.9019 0.1467
vn 0.2693 -0.9316 0.2440
vn -0.4277 -0.5702 0.7014
vn -0.7651 0.4893 0.4186
vn 0.4841 0.6455 -0.5907
vn 0.4277 -0.5702 -0.7014
vn -0.4841 0.6455 -0.5907
vn -0.4063 -0.9019 0.1467
vn 0.3739 0.8584 -0.3512
vn 0.3721 0.8871 0.2732
vn -0.2582 -0.9465 -0.1935
vn -0.3766 -0.8897 0.2580
vn -0.2383 0.9593 0.1514
vn -0.7525 0.5817 0.3089
vn 0.3766 -0.8897 0.2579
vn 0.3825 -0.8601 -0.3375
vn -0.8470 0.4384 -0.3006
vn -0.2681 -0.9327 -0.2411
vn 0.7524 0.5818 0.3089
vn 0.7104 0.5842 -0.3926
vn 0.7400 -0.5527 -0.3834
vn 0.7720 -0.5610 0.2990
vn -0.4277 0.5702 0.7014
vn -0.9528 0.0361 -0.3013
vn 0.0214 -0.9996 -0.0180
vn 0.7016 0.2594 0.6637
vn 0.7016 -0.2594 0.6637
vn -0.7016 0.2594 0.6637
vn -0.0214 0.9996 -0.0180
vn -0.9528 -0.0361 -0.3013
vn -0.1362 -0.9805 0.1417
vn 0.0214 0.9996 -0.0180
vn 0.6719 -0.0518 0.7388
vn -0.7651 -0.4893 0.4186
vn -0.6675 -0.0770 0.7406
vn 0.9389 0.1534 -0.3080
vn -0.7399 -0.5527 -0.3834
vn -0.6818 0.0757 0.7276
vn 0.9528 -0.0361 -0.3013
vn 0.1562 -0.9874 -0.0252
vn 0.1707 -0.9850 -0.0262
vn 0.0360 -0.9964 -0.0773
vn 0.0970 -0.9951 -0.0206
vn 0.0636 -0.9975 0.0317
vn 0.1477 -0.9883 0.0380
vn -0.2386 -0.9709 -0.0205
vn -0.1710 -0.9846 -0.0371
vn -0.0365 -0.9963 -0.0775
vn -0.1077 -0.9941 -0.0160
vn -0.0636 -0.9975 0.0322
vn -0.0816 -0.9966 0.0077
vn -0.1670 -0.9857 -0.0246
vn -0.0822 -0.9966 -0.0086
vn -0.0268 -0.9985 0.0484
vn -0.0539 -0.9964 -0.0652
vn -0.2048 -0.9782 -0.0343
vn -0.1958 -0.9803 0.0241
vn 0.1676 -0.9855 -0.0247
vn 0.0826 -0.9965 -0.0086
vn -0.0008 -0.9992 0.0405
vn 0.0509 -0.9965 -0.0661
vn 0.1922 -0.9809 -0.0297
vn 0.1560 -0.9876 0.0145
vn 0.6675 -0.0770 0.7406
vn 0.4708 -0.6509 0.5956
vn -0.2365 0.9520 -0.1946
vn -0.7719 -0.5610 0.2990
vn 0.8359 0.4711 0.2818
vn 0.7589 0.6295 0.1667
vn 0.8789 -0.4477 0.1645
vn 0.7770 -0.5799 0.2451
vn 0.4277 0.5702 0.7014
vn -0.4277 -0.5702 -0.7014
vn -0.2693 0.9316 0.2440
vn -0.4421 0.8846 -0.1481
vn -0.7525 -0.6382 -0.1625
vn -0.7104 0.5841 -0.3926
vn 0.8554 -0.4317 -0.2862
vn 0.7174 0.6771 -0.1637
vn 0.4460 -0.8831 -0.1459
vn 0.2681 0.9327 -0.2411
vn 0.2693 0.9316 0.2440
vn 0.4063 -0.9019 0.1467
vn -0.4708 -0.6509 0.5956
vn -0.7590 0.6294 0.1667
vn -0.8359 0.4711 0.2818
vn 0.4277 0.5702 -0.7014
vn 0.4841 -0.6455 -0.5907
vn -0.4277 0.5702 -0.7014
vn -0.2693 -0.9316 0.2440
vn 0.2364 0.9520 -0.1946
vn 0.2382 0.9593 0.1514
vn -0.3825 -0.8601 -0.3375
vn -0.2602 -0.9538 0.1505
vn -0.3721 0.8871 0.2732
vn -0.8818 0.4287 0.1967
vn 0.2602 -0.9538 0.1505
vn 0.2582 -0.9465 -0.1935
vn -0.7175 0.6771 -0.1637
vn -0.4459 -0.8831 -0.1459
vn 0.8817 0.4288 0.1967
vn 0.8715 0.4238 -0.2466
vn 0.8891 -0.3934 -0.2340
vn 0.8997 -0.3981 0.1789
vn -0.4708 0.6509 0.5956
vn -0.9389 0.1534 -0.3080
vn 0.1362 -0.9805 0.1417
vn 0.0930 0.9801 -0.1754
vn -0.9389 -0.1534 -0.3080
vn -0.0214 -0.9996 -0.0180
vn -0.0930 0.9801 -0.1754
vn 0.6818 0.0757 0.7276
vn -0.7769 -0.5800 0.2451
vn -0.8789 -0.4477 0.1645
vn -0.6796 0.0533 0.7317
vn 0.9528 0.0361 -0.3013
vn -0.8891 -0.3935 -0.2340
vn -0.6719 -0.0518 0.7388
vn 0.9389 -0.1534 -0.3080
vn 0.2231 -0.9746 -0.0184
vn 0.1631 -0.9860 -0.0334
vn 0.0276 -0.9970 -0.0724
vn 0.1476 -0.9882 -0.0400
vn 0.0550 -0.9976 0.0417
vn 0.0699 -0.9975 0.0136
vn -0.1636 -0.9861 -0.0283
vn -0.1805 -0.9832 -0.0281
vn -0.0274 -0.9970 -0.0723
vn -0.1746 -0.9838 -0.0416
vn -0.0555 -0.9976 0.0415
vn -0.1747 -0.9839 0.0369
vn -0.1385 -0.9903 0.0129
vn -0.1590 -0.9861 -0.0479
vn 0.0004 -0.9992 0.0389
vn 0.0004 -0.9991 -0.0429
vn -0.2060 -0.9780 -0.0326
vn -0.1620 -0.9866 0.0170
vn 0.1394 -0.9902 0.0121
vn 0.1599 -0.9860 -0.0473
vn 0.0240 -0.9985 0.0491
vn -0.0008 -0.9990 -0.0449
vn 0.1925 -0.9809 -0.0293
vn 0.1788 -0.9837 0.0193
s off
f 43/1/1 47/2/1 44/3/1
f 38/4/2 13/5/2 4/6/2
f 21/7/3 27/8/3 20/9/3
f 30/10/4 58/11/4 60/12/4
f 3/13/5 37/14/5 39/15/5
f 39/15/6 38/4/6 4/6/6
f 37/14/7 12/16/7 41/17/7
f 64/18/8 63/19/8 62/20/8
f 9/21/9 11/22/9 15/23/9
f 7/24/10 26/25/10 16/26/10
f 5/27/11 27/8/11 14/28/11
f 6/29/12 59/30/12 11/22/12
f 21/7/13 59/30/13 60/31/13
f 2/32/14 35/33/14 23/34/14
f 1/35/15 35/33/15 10/36/15
f 2/32/16 32/37/16 9/21/16
f 1/35/17 27/8/17 18/38/17
f 26/25/18 3/13/18 17/39/18
f 31/40/19 4/6/19 13/5/19
f 13/5/20 62/20/20 8/41/20
f 63/19/21 61/42/21 7/24/21
f 14/28/22 10/36/22 15/23/22
f 9/21/23 10/36/23 2/32/23
f 11/22/24 14/28/24 15/23/24
f 31/40/25 8/41/25 29/43/25
f 27/8/26 19/44/26 18/38/26
f 19/44/27 26/25/27 17/39/27
f 30/10/28 32/37/28 33/45/28
f 30/10/29 31/40/29 29/43/29
f 21/7/30 26/25/30 28/46/30
f 21/7/31 58/11/31 16/26/31
f 31/40/32 25/47/32 24/48/32
f 25/47/33 32/37/33 23/34/33
f 59/30/34 5/27/34 11/22/34
f 32/37/35 6/29/35 9/21/35
f 34/49/36 19/44/36 17/39/36
f 19/44/37 35/33/37 18/38/37
f 35/33/38 25/47/38 23/34/38
f 25/47/39 34/49/39 24/48/39
f 61/42/40 12/16/40 7/24/40
f 64/18/41 65/50/41 61/42/41
f 42/51/42 67/52/42 62/20/42
f 37/14/43 40/53/43 39/15/43
f 40/53/44 38/4/44 39/15/44
f 61/42/45 63/19/45 64/18/45
f 41/17/46 43/1/46 37/14/46
f 67/52/47 64/18/47 62/20/47
f 42/51/48 45/54/48 48/55/48
f 65/50/49 41/17/49 61/42/49
f 44/3/50 48/55/50 45/54/50
f 8/41/51 62/20/51 63/19/51
f 65/50/52 47/2/52 46/56/52
f 40/53/53 43/1/53 44/3/53
f 30/10/54 59/30/54 22/57/54
f 66/58/55 48/55/55 47/2/55
f 40/53/56 45/54/56 38/4/56
f 93/59/57 50/60/57 51/61/57
f 94/62/58 51/61/58 49/63/58
f 86/64/59 57/65/59 87/66/59
f 89/67/60 56/68/60 91/69/60
f 88/70/61 53/71/61 86/64/61
f 89/67/62 55/72/62 52/73/62
f 84/74/63 69/75/63 83/76/63
f 85/77/64 70/78/64 84/74/64
f 76/79/65 77/80/65 78/81/65
f 75/82/66 80/83/66 82/84/66
f 72/85/67 79/86/67 77/80/67
f 80/83/68 74/87/68 81/88/68
f 77/80/69 59/89/69 60/90/69
f 78/81/70 60/90/70 58/91/70
f 72/85/71 81/88/71 73/92/71
f 82/84/72 72/85/72 76/79/72
f 75/82/73 84/74/73 71/93/73
f 71/93/74 83/76/74 74/87/74
f 35/94/75 86/64/75 36/95/75
f 36/95/76 87/66/76 34/96/76
f 53/71/77 90/97/77 89/67/77
f 53/71/78 91/69/78 57/65/78
f 56/68/79 93/59/79 94/62/79
f 52/73/80 92/98/80 93/59/80
f 43/1/81 46/56/81 47/2/81
f 38/4/82 42/51/82 13/5/82
f 21/7/83 28/46/83 27/8/83
f 30/10/84 29/43/84 58/11/84
f 39/15/85 34/49/85 3/13/85
f 34/49/86 17/39/86 3/13/86
f 4/6/87 24/48/87 39/15/87
f 24/48/88 34/49/88 39/15/88
f 37/14/89 3/13/89 12/16/89
f 9/21/90 6/29/90 11/22/90
f 7/24/91 12/16/91 26/25/91
f 5/27/92 20/9/92 27/8/92
f 6/29/93 22/57/93 59/30/93
f 21/7/94 20/9/94 59/30/94
f 2/32/95 10/36/95 35/33/95
f 1/35/96 18/38/96 35/33/96
f 2/32/97 23/34/97 32/37/97
f 1/35/98 14/28/98 27/8/98
f 26/25/99 12/16/99 3/13/99
f 31/40/100 24/48/100 4/6/100
f 13/5/101 42/51/101 62/20/101
f 16/26/102 58/11/102 7/24/102
f 58/11/103 63/19/103 7/24/103
f 14/28/104 1/35/104 10/36/104
f 9/21/105 15/23/105 10/36/105
f 11/22/106 5/27/106 14/28/106
f 31/40/107 13/5/107 8/41/107
f 27/8/108 28/46/108 19/44/108
f 19/44/109 28/46/109 26/25/109
f 30/10/110 22/57/110 32/37/110
f 30/10/111 33/45/111 31/40/111
f 21/7/112 16/26/112 26/25/112
f 21/7/113 60/31/113 58/11/113
f 31/40/114 33/45/114 25/47/114
f 25/47/115 33/45/115 32/37/115
f 59/30/116 20/9/116 5/27/116
f 32/37/117 22/57/117 6/29/117
f 34/49/118 36/99/118 19/44/118
f 19/44/119 36/99/119 35/33/119
f 35/33/120 36/100/120 25/47/120
f 25/47/121 36/100/121 34/49/121
f 61/42/122 41/17/122 12/16/122
f 64/18/123 66/58/123 65/50/123
f 42/51/124 48/55/124 67/52/124
f 41/17/125 46/56/125 43/1/125
f 67/52/126 66/58/126 64/18/126
f 42/51/127 38/4/127 45/54/127
f 65/50/128 46/56/128 41/17/128
f 44/3/129 47/2/129 48/55/129
f 58/11/130 29/43/130 63/19/130
f 29/43/131 8/41/131 63/19/131
f 65/50/132 66/58/132 47/2/132
f 40/53/133 37/14/133 43/1/133
f 30/10/134 60/12/134 59/30/134
f 66/58/135 67/52/135 48/55/135
f 40/53/136 44/3/136 45/54/136
f 93/59/137 92/98/137 50/60/137
f 94/62/138 93/59/138 51/61/138
f 86/64/139 53/71/139 57/65/139
f 89/67/140 52/73/140 56/68/140
f 88/70/141 54/101/141 53/71/141
f 89/67/142 90/97/142 55/72/142
f 84/74/143 70/78/143 69/75/143
f 85/77/144 68/102/144 70/78/144
f 76/79/145 72/85/145 77/80/145
f 75/82/146 71/93/146 80/83/146
f 72/85/147 73/92/147 79/86/147
f 80/83/148 71/93/148 74/87/148
f 77/80/149 79/86/149 59/89/149
f 78/81/150 77/80/150 60/90/150
f 72/85/151 80/83/151 81/88/151
f 82/84/152 80/83/152 72/85/152
f 75/82/153 85/77/153 84/74/153
f 71/93/154 84/74/154 83/76/154
f 35/94/155 88/70/155 86/64/155
f 36/95/156 86/64/156 87/66/156
f 53/71/157 54/101/157 90/97/157
f 53/71/158 89/67/158 91/69/158
f 56/68/159 52/73/159 93/59/159
f 52/73/160 55/72/160 92/98/160
