# Blender v2.93.4 OBJ File: 'birdlow poly.blend'
# www.blender.org
o Cube
v 0.281222 0.210910 -1.168585
v 0.281223 -0.210910 -1.168585
v 0.317696 0.238264 1.154887
v 0.317696 -0.238264 1.154887
v -0.281222 0.210910 -1.168585
v -0.281223 -0.210910 -1.168585
v -0.317696 0.238264 1.154887
v -0.317696 -0.238264 1.154887
v 0.000000 -0.257128 -1.302488
v 0.342848 -0.000000 -1.302488
v -0.342848 -0.000000 -1.302488
v 0.000000 0.290477 1.306157
v 0.000000 -0.290477 1.306157
v 0.000000 0.257128 -1.302488
v 0.000000 0.000000 -1.583497
v -0.376801 0.282591 0.718550
v 0.376801 0.282591 0.718550
v 0.355755 0.266807 -0.606695
v 0.560144 0.420094 0.000000
v -0.355755 0.266807 -0.606695
v -0.560144 0.420094 0.000000
v -0.355755 -0.266807 -0.606695
v 0.355755 -0.266807 -0.606695
v 0.376801 -0.282591 0.718550
v 0.560144 -0.420094 -0.000000
v 0.000000 0.465362 0.638316
v 0.000000 0.461360 -0.512315
v 0.000000 0.566099 0.000000
v -0.376801 -0.282591 0.718550
v -0.560144 -0.420094 -0.000000
v 0.000000 -0.465362 0.638316
v 0.000000 -0.461360 -0.512315
v 0.000000 -0.566098 -0.000000
v 0.620503 0.000000 0.638316
v 0.615167 0.000000 -0.512315
v 0.754823 0.000000 0.000000
v 0.372824 0.049592 1.274672
v 0.372824 -0.049592 1.274672
v 0.422906 0.000000 1.241114
v 0.378827 -0.000000 1.287713
v 0.000000 0.046965 1.572286
v 0.000000 -0.046965 1.572286
v 0.604358 0.067773 2.009074
v 0.614088 -0.000000 2.004979
v 0.604358 -0.067773 2.009074
v 0.000000 0.225603 2.570261
v 0.000000 0.161421 2.563585
v 0.000000 0.097238 2.570261
v 2.753754 0.000000 1.032095
v 2.518713 0.000000 -0.375586
v 2.784160 0.000000 0.267988
v 2.176990 0.000000 -0.246112
v 1.465907 0.000000 -0.246112
v 1.326250 0.000000 -0.829526
v 1.944359 0.000000 -0.638106
v 2.042670 0.000000 0.332043
v 1.331587 0.000000 0.255475
v -0.620503 0.000000 0.638316
v -0.615167 0.000000 -0.512315
v -0.754823 0.000000 0.000000
v -0.372824 0.049592 1.274672
v -0.372824 -0.049592 1.274672
v -0.422906 0.000000 1.241114
v -0.378827 -0.000000 1.287713
v -0.604358 0.067773 2.009074
v -0.614088 -0.000000 2.004979
v -0.604358 -0.067773 2.009074
v -2.753754 0.000000 1.032095
v -2.518713 0.000000 -0.375586
v -2.784160 0.000000 0.267988
v -2.176990 0.000000 -0.246112
v -1.465907 0.000000 -0.246112
v -1.326250 0.000000 -0.829526
v -1.944359 0.000000 -0.638106
v -2.042670 0.000000 0.332043
v -1.331587 0.000000 0.255475
v -1.114056 0.000000 -0.124334
v -0.979737 0.000000 0.444908
v -0.974400 0.000000 -0.672567
v -1.821448 0.000000 -0.246112
v -1.635305 0.000000 -0.733816
v -1.687129 0.000000 0.293759
v -2.231536 0.000000 -0.506846
v -2.480575 0.000000 0.010938
v -2.398212 0.000000 0.682069
v 1.110365 0.000000 -0.123056
v 0.976045 0.000000 0.446895
v 0.970709 0.000000 -0.670920
v 1.821448 0.000000 -0.246112
v 1.635305 0.000000 -0.733816
v 1.687129 0.000000 0.293759
v 2.231536 0.000000 -0.506846
v 2.480575 0.000000 0.010938
v 2.398212 0.000000 0.682069
vt 0.370976 0.407750
vt 0.371926 0.406126
vt 0.371072 0.407464
vt 0.371052 0.405840
vt 0.366170 0.408129
vt 0.367981 0.404714
vt 0.363472 0.427612
vt 0.362158 0.439391
vt 0.357402 0.433922
vt 0.352812 0.421059
vt 0.362641 0.418447
vt 0.358285 0.424399
vt 0.376424 0.410736
vt 0.372852 0.406727
vt 0.371769 0.405242
vt 0.372338 0.412652
vt 0.371218 0.409720
vt 0.367482 0.412321
vt 0.367081 0.412790
vt 0.367344 0.412158
vt 0.346736 0.436171
vt 0.350085 0.435964
vt 0.347998 0.438961
vt 0.369214 0.414537
vt 0.375077 0.420818
vt 0.367906 0.419302
vt 0.351986 0.436684
vt 0.351390 0.438772
vt 0.348544 0.434650
vt 0.354453 0.429538
vt 0.358232 0.424151
vt 0.345059 0.437939
vt 0.684905 0.000155
vt 0.328878 0.435787
vt 0.350267 0.441021
vt 0.347233 0.440158
vt 0.341423 0.426597
vt 0.358048 0.453301
vt 0.384000 0.412266
vt 0.354978 0.408293
vt 0.364649 0.411442
vt 0.367691 0.412333
vt 0.359830 0.414089
vt 0.387157 0.443696
vt 0.345251 0.416578
vt 0.370375 0.432352
vt 0.325823 0.406029
vt 0.358958 0.395072
vt 0.000155 0.883067
vt 0.370911 0.407455
vt 0.369298 0.407976
vt 0.371208 0.407100
vt 0.371833 0.406229
vt 0.371157 0.407208
vt 0.372495 0.405349
vt 0.371383 0.406870
vt 0.349032 0.428724
vt 0.371067 0.407268
vt 0.808732 0.091048
vt 0.731249 0.097586
vt 0.848306 0.021938
vt 0.943854 0.082873
vt 0.999845 0.000155
vt 0.832147 0.365678
vt 0.898631 0.308368
vt 0.949238 0.371409
vt 0.782079 0.230155
vt 0.887864 0.165591
vt 0.893247 0.236979
vt 0.729362 0.413083
vt 0.795000 0.300152
vt 0.700438 0.220202
vt 0.769158 0.160158
vt 0.808732 0.863895
vt 0.731249 0.857356
vt 0.715844 0.796048
vt 0.943854 0.872069
vt 0.848306 0.933005
vt 0.898631 0.646574
vt 0.831761 0.589945
vt 0.948712 0.584188
vt 0.887864 0.789352
vt 0.782079 0.724788
vt 0.893247 0.717963
vt 0.795000 0.654790
vt 0.728903 0.542527
vt 0.700438 0.734740
vt 0.692827 0.670417
vt 0.773508 0.477626
vt 0.869295 0.523740
vt 0.999845 0.520493
vt 0.685215 0.606093
vt 0.769158 0.794785
vt 0.773508 0.477316
vt 0.869295 0.431203
vt 0.999845 0.434450
vt 0.692827 0.284526
vt 0.715844 0.158894
vt 0.085302 0.152662
vt 0.684905 0.625488
vt 0.685215 0.348849
vt 0.999845 0.954787
vn 0.6796 0.0533 0.7317
vn 0.4277 -0.5702 0.7014
vn -0.3784 0.8591 -0.3445
vn -0.8912 -0.4130 0.1875
vn 0.7651 0.4893 0.4186
vn 0.7651 -0.4893 0.4186
vn 0.4708 0.6509 0.5956
vn -0.7016 -0.2594 0.6637
vn -0.4841 -0.6455 -0.5907
vn -0.4063 0.9019 0.1467
vn -0.2681 0.9327 -0.2411
vn -0.8513 -0.4350 -0.2934
vn -0.8808 0.4082 -0.2401
vn 0.7356 -0.6575 -0.1630
vn 0.8513 0.4350 -0.2934
vn 0.2681 -0.9327 -0.2411
vn 0.4443 0.8837 -0.1469
vn 0.4063 0.9019 0.1467
vn 0.2693 -0.9316 0.2440
vn -0.4277 -0.5702 0.7014
vn -0.7651 0.4893 0.4186
vn 0.4841 0.6455 -0.5907
vn 0.4277 -0.5702 -0.7014
vn -0.4841 0.6455 -0.5907
vn -0.4063 -0.9019 0.1467
vn 0.3784 0.8591 -0.3445
vn 0.3744 0.8884 0.2655
vn -0.2474 -0.9493 -0.1941
vn -0.3744 -0.8884 0.2655
vn -0.2493 0.9566 0.1510
vn -0.7625 0.5713 0.3039
vn 0.3744 -0.8884 0.2655
vn 0.3784 -0.8591 -0.3445
vn -0.8513 0.4350 -0.2934
vn -0.2681 -0.9327 -0.2411
vn 0.7625 0.5713 0.3039
vn 0.7256 0.5682 -0.3880
vn 0.7256 -0.5682 -0.3880
vn 0.7625 -0.5713 0.3039
vn -0.4277 0.5702 0.7014
vn -0.9528 0.0361 -0.3013
vn 0.0214 -0.9996 -0.0180
vn 0.7016 0.2594 0.6637
vn 0.7016 -0.2594 0.6637
vn -0.7016 0.2594 0.6637
vn -0.0214 0.9996 -0.0180
vn -0.9528 -0.0361 -0.3013
vn -0.1362 -0.9805 0.1417
vn 0.0214 0.9996 -0.0180
vn 0.6719 -0.0518 0.7388
vn -0.8388 -0.4699 0.2750
vn -0.6675 -0.0770 0.7406
vn 0.9389 0.1534 -0.3080
vn -0.7256 -0.5682 -0.3880
vn -0.6818 0.0757 0.7276
vn 0.9528 -0.0361 -0.3013
vn -0.0000 -1.0000 0.0000
vn 0.6675 -0.0770 0.7406
vn 0.4708 -0.6509 0.5956
vn -0.2474 0.9493 -0.1941
vn -0.7625 -0.5713 0.3039
vn 0.8388 0.4699 0.2750
vn 0.7696 0.6163 0.1669
vn 0.7696 -0.6163 0.1669
vn 0.8388 -0.4699 0.2750
vn 0.4277 0.5702 0.7014
vn -0.4277 -0.5702 -0.7014
vn -0.2693 0.9316 0.2440
vn -0.4443 0.8837 -0.1469
vn -0.7356 -0.6575 -0.1630
vn -0.7256 0.5682 -0.3880
vn 0.8513 -0.4350 -0.2934
vn 0.7356 0.6575 -0.1630
vn 0.4443 -0.8837 -0.1469
vn 0.2681 0.9327 -0.2411
vn 0.2693 0.9316 0.2440
vn 0.4063 -0.9019 0.1467
vn -0.4708 -0.6509 0.5956
vn -0.7696 0.6163 0.1669
vn -0.8388 0.4699 0.2750
vn 0.4277 0.5702 -0.7014
vn 0.4841 -0.6455 -0.5907
vn -0.4277 0.5702 -0.7014
vn -0.2693 -0.9316 0.2440
vn 0.2474 0.9493 -0.1941
vn 0.2493 0.9566 0.1510
vn -0.3784 -0.8591 -0.3445
vn -0.2493 -0.9566 0.1510
vn -0.3744 0.8884 0.2655
vn -0.8912 0.4130 0.1875
vn 0.2493 -0.9566 0.1510
vn 0.2474 -0.9493 -0.1941
vn -0.7356 0.6575 -0.1630
vn -0.4443 -0.8837 -0.1469
vn 0.8912 0.4130 0.1875
vn 0.8808 0.4082 -0.2401
vn 0.8808 -0.4082 -0.2401
vn 0.8912 -0.4130 0.1875
vn -0.4708 0.6509 0.5956
vn -0.9389 0.1534 -0.3080
vn 0.1362 -0.9805 0.1417
vn 0.0930 0.9801 -0.1754
vn -0.9389 -0.1534 -0.3080
vn -0.0214 -0.9996 -0.0180
vn -0.0930 0.9801 -0.1754
vn 0.6818 0.0757 0.7276
vn -0.7696 -0.6163 0.1669
vn -0.7651 -0.4893 0.4186
vn -0.6796 0.0533 0.7317
vn 0.9528 0.0361 -0.3013
vn -0.8808 -0.4082 -0.2401
vn -0.6719 -0.0518 0.7388
vn 0.9389 -0.1534 -0.3080
s off
f 43/1/1 47/2/1 44/3/1
f 38/4/2 13/5/2 4/6/2
f 21/7/3 27/8/3 20/9/3
f 30/10/4 58/11/4 60/12/4
f 3/13/5 37/14/5 39/15/5
f 39/15/6 38/4/6 4/6/6
f 37/14/7 12/16/7 41/17/7
f 64/18/8 63/19/8 62/20/8
f 9/21/9 11/22/9 15/23/9
f 7/24/10 26/25/10 16/26/10
f 5/27/11 27/8/11 14/28/11
f 6/29/12 59/30/12 11/22/12
f 21/7/13 59/30/13 60/31/13
f 2/32/14 35/33/14 23/34/14
f 1/35/15 35/33/15 10/36/15
f 2/32/16 32/37/16 9/21/16
f 1/35/17 27/8/17 18/38/17
f 26/25/18 3/13/18 17/39/18
f 31/40/19 4/6/19 13/5/19
f 13/5/20 62/20/20 8/41/20
f 63/19/21 61/42/21 7/24/21
f 14/28/22 10/36/22 15/23/22
f 9/21/23 10/36/23 2/32/23
f 11/22/24 14/28/24 15/23/24
f 31/40/25 8/41/25 29/43/25
f 27/8/26 19/44/26 18/38/26
f 19/44/27 26/25/27 17/39/27
f 30/10/28 32/37/28 33/45/28
f 30/10/29 31/40/29 29/43/29
f 21/7/30 26/25/30 28/46/30
f 21/7/31 58/11/31 16/26/31
f 31/40/32 25/47/32 24/48/32
f 25/47/33 32/37/33 23/34/33
f 59/30/34 5/27/34 11/22/34
f 32/37/35 6/29/35 9/21/35
f 34/49/36 19/44/36 17/39/36
f 19/44/37 35/33/37 18/38/37
f 35/33/38 25/47/38 23/34/38
f 25/47/39 34/49/39 24/48/39
f 61/42/40 12/16/40 7/24/40
f 64/18/41 65/50/41 61/42/41
f 42/51/42 67/52/42 62/20/42
f 37/14/43 40/53/43 39/15/43
f 40/53/44 38/4/44 39/15/44
f 61/42/45 63/19/45 64/18/45
f 41/17/46 43/1/46 37/14/46
f 67/52/47 64/18/47 62/20/47
f 42/51/48 45/54/48 48/55/48
f 65/50/49 41/17/49 61/42/49
f 44/3/50 48/55/50 45/54/50
f 8/41/51 63/19/51 58/11/51
f 65/50/52 47/2/52 46/56/52
f 40/53/53 43/1/53 44/3/53
f 30/10/54 59/30/54 22/57/54
f 66/58/55 48/55/55 47/2/55
f 40/53/56 45/54/56 38/4/56
f 93/59/57 50/60/57 51/61/57
f 94/62/57 51/61/57 49/63/57
f 86/64/57 57/65/57 87/66/57
f 89/67/57 56/68/57 91/69/57
f 88/70/57 53/71/57 86/64/57
f 89/67/57 55/72/57 52/73/57
f 84/74/57 69/75/57 83/76/57
f 85/77/57 70/78/57 84/74/57
f 76/79/57 77/80/57 78/81/57
f 75/82/57 80/83/57 82/84/57
f 72/85/57 79/86/57 77/80/57
f 80/83/57 74/87/57 81/88/57
f 77/80/57 59/89/57 60/90/57
f 78/81/57 60/90/57 58/91/57
f 72/85/57 81/88/57 73/92/57
f 82/84/57 72/85/57 76/79/57
f 75/82/57 84/74/57 71/93/57
f 71/93/57 83/76/57 74/87/57
f 35/94/57 86/64/57 36/95/57
f 36/95/57 87/66/57 34/96/57
f 53/71/57 90/97/57 89/67/57
f 53/71/57 91/69/57 57/65/57
f 56/68/57 93/59/57 94/62/57
f 52/73/57 92/98/57 93/59/57
f 43/1/58 46/56/58 47/2/58
f 38/4/59 42/51/59 13/5/59
f 21/7/60 28/46/60 27/8/60
f 30/10/61 29/43/61 58/11/61
f 39/15/62 34/49/62 3/13/62
f 34/49/63 17/39/63 3/13/63
f 4/6/64 24/48/64 34/49/64
f 34/49/65 39/15/65 4/6/65
f 37/14/66 3/13/66 12/16/66
f 9/21/67 6/29/67 11/22/67
f 7/24/68 12/16/68 26/25/68
f 5/27/69 20/9/69 27/8/69
f 6/29/70 22/57/70 59/30/70
f 21/7/71 20/9/71 59/30/71
f 2/32/72 10/36/72 35/33/72
f 1/35/73 18/38/73 35/33/73
f 2/32/74 23/34/74 32/37/74
f 1/35/75 14/28/75 27/8/75
f 26/25/76 12/16/76 3/13/76
f 31/40/77 24/48/77 4/6/77
f 13/5/78 42/51/78 62/20/78
f 16/26/79 58/11/79 7/24/79
f 58/11/80 63/19/80 7/24/80
f 14/28/81 1/35/81 10/36/81
f 9/21/82 15/23/82 10/36/82
f 11/22/83 5/27/83 14/28/83
f 31/40/84 13/5/84 8/41/84
f 27/8/85 28/46/85 19/44/85
f 19/44/86 28/46/86 26/25/86
f 30/10/87 22/57/87 32/37/87
f 30/10/88 33/45/88 31/40/88
f 21/7/89 16/26/89 26/25/89
f 21/7/90 60/31/90 58/11/90
f 31/40/91 33/45/91 25/47/91
f 25/47/92 33/45/92 32/37/92
f 59/30/93 20/9/93 5/27/93
f 32/37/94 22/57/94 6/29/94
f 34/49/95 36/99/95 19/44/95
f 19/44/96 36/99/96 35/33/96
f 35/33/97 36/100/97 25/47/97
f 25/47/98 36/100/98 34/49/98
f 61/42/99 41/17/99 12/16/99
f 64/18/100 66/58/100 65/50/100
f 42/51/101 48/55/101 67/52/101
f 41/17/102 46/56/102 43/1/102
f 67/52/103 66/58/103 64/18/103
f 42/51/104 38/4/104 45/54/104
f 65/50/105 46/56/105 41/17/105
f 44/3/106 47/2/106 48/55/106
f 58/11/107 29/43/107 8/41/107
f 8/41/108 62/20/108 63/19/108
f 65/50/109 66/58/109 47/2/109
f 40/53/110 37/14/110 43/1/110
f 30/10/111 60/12/111 59/30/111
f 66/58/112 67/52/112 48/55/112
f 40/53/113 44/3/113 45/54/113
f 93/59/57 92/98/57 50/60/57
f 94/62/57 93/59/57 51/61/57
f 86/64/57 53/71/57 57/65/57
f 89/67/57 52/73/57 56/68/57
f 88/70/57 54/101/57 53/71/57
f 89/67/57 90/97/57 55/72/57
f 84/74/57 70/78/57 69/75/57
f 85/77/57 68/102/57 70/78/57
f 76/79/57 72/85/57 77/80/57
f 75/82/57 71/93/57 80/83/57
f 72/85/57 73/92/57 79/86/57
f 80/83/57 71/93/57 74/87/57
f 77/80/57 79/86/57 59/89/57
f 78/81/57 77/80/57 60/90/57
f 72/85/57 80/83/57 81/88/57
f 82/84/57 80/83/57 72/85/57
f 75/82/57 85/77/57 84/74/57
f 71/93/57 84/74/57 83/76/57
f 35/94/57 88/70/57 86/64/57
f 36/95/57 86/64/57 87/66/57
f 53/71/57 54/101/57 90/97/57
f 53/71/57 89/67/57 91/69/57
f 56/68/57 52/73/57 93/59/57
f 52/73/57 55/72/57 92/98/57
