# Blender v2.93.4 OBJ File: 'birdlow poly.blend'
# www.blender.org
o Cube
v 0.281222 0.210910 -1.168585
v 0.281223 -0.210910 -1.168585
v 0.317696 0.238264 1.154887
v 0.317696 -0.238264 1.154887
v -0.281222 0.210910 -1.168585
v -0.281223 -0.210910 -1.168585
v -0.317696 0.238264 1.154887
v -0.317696 -0.238264 1.154887
v 0.000000 -0.257128 -1.302488
v 0.342848 -0.000000 -1.302488
v -0.342848 -0.000000 -1.302488
v 0.000000 0.290477 1.306157
v 0.000000 -0.290477 1.306157
v 0.000000 0.257128 -1.302488
v 0.000000 0.000000 -1.583497
v -0.376801 0.282591 0.718550
v 0.376801 0.282591 0.718550
v 0.356118 0.267436 -0.606695
v 0.563873 0.422705 0.000000
v -0.356103 0.267374 -0.606695
v -0.563837 0.422406 0.000000
v -0.355565 -0.266378 -0.606695
v 0.355557 -0.266327 -0.606695
v 0.376801 -0.282591 0.718550
v 0.556838 -0.417049 -0.000000
v 0.000000 0.465362 0.638316
v 0.000000 0.461360 -0.512315
v 0.000000 0.566099 0.000000
v -0.376801 -0.282591 0.718550
v -0.556834 -0.417347 -0.000000
v 0.000000 -0.465362 0.638316
v 0.000000 -0.461360 -0.512315
v 0.000000 -0.566098 -0.000000
v 0.620730 0.003395 0.638316
v 0.615531 0.005445 -0.512315
v 0.755135 0.004667 0.000000
v 0.372824 0.049592 1.274672
v 0.372824 -0.049592 1.274672
v 0.422906 0.000000 1.241114
v 0.378827 -0.000000 1.287713
v 0.000000 0.046965 1.572286
v 0.000000 -0.046965 1.572286
v 0.604358 0.067773 2.009074
v 0.614088 -0.000000 2.004979
v 0.604358 -0.067773 2.009074
v 0.000000 0.225603 2.570261
v 0.000000 0.161421 2.563585
v 0.000000 0.097238 2.570261
v 2.720910 -0.321098 1.032095
v 2.487892 -0.296515 -0.375586
v 2.747514 -0.347594 0.267989
v 2.158417 -0.205652 -0.246112
v 1.460859 -0.075541 -0.246112
v 1.324765 -0.038375 -0.829526
v 1.934569 -0.140331 -0.638106
v 2.030894 -0.153196 0.332043
v 1.330189 -0.034921 0.255475
v -0.620701 0.002962 0.638316
v -0.615485 0.004758 -0.512315
v -0.755059 0.003533 0.000000
v -0.372824 0.049592 1.274672
v -0.372824 -0.049592 1.274672
v -0.422906 0.000000 1.241114
v -0.378827 -0.000000 1.287713
v -0.604358 0.067773 2.009074
v -0.614088 -0.000000 2.004979
v -0.604358 -0.067773 2.009074
v -2.719961 -0.328678 1.032094
v -2.486676 -0.305575 -0.375586
v -2.746493 -0.355563 0.267988
v -2.157220 -0.214620 -0.246112
v -1.460553 -0.080112 -0.246112
v -1.324424 -0.042533 -0.829526
v -1.933795 -0.147153 -0.638106
v -2.030060 -0.160161 0.332043
v -1.329883 -0.038645 0.255475
v -1.112209 -0.027648 -0.124334
v -0.980259 -0.002062 0.444908
v -0.974573 -0.005493 -0.672567
v -1.812954 -0.127317 -0.246112
v -1.630306 -0.087579 -0.733816
v -1.681941 -0.089343 0.293759
v -2.210707 -0.224706 -0.506846
v -2.451117 -0.289457 0.010938
v -2.374563 -0.248081 0.682069
v 1.108803 -0.023372 -0.123056
v 0.976753 0.000392 0.446895
v 0.971114 -0.002153 -0.670920
v 1.813276 -0.122666 -0.246112
v 1.630774 -0.082484 -0.733816
v 1.682432 -0.084263 0.293759
v 2.211826 -0.216124 -0.506846
v 2.452258 -0.280766 0.010938
v 2.375519 -0.240457 0.682069
vt 0.370976 0.407750
vt 0.371926 0.406126
vt 0.371072 0.407464
vt 0.371052 0.405840
vt 0.366170 0.408129
vt 0.367981 0.404714
vt 0.363472 0.427612
vt 0.362158 0.439391
vt 0.357402 0.433922
vt 0.352812 0.421059
vt 0.362641 0.418447
vt 0.358285 0.424399
vt 0.376424 0.410736
vt 0.372852 0.406727
vt 0.371769 0.405242
vt 0.372338 0.412652
vt 0.371218 0.409720
vt 0.367482 0.412321
vt 0.367081 0.412790
vt 0.367344 0.412158
vt 0.346736 0.436171
vt 0.350085 0.435964
vt 0.347998 0.438961
vt 0.369214 0.414537
vt 0.375077 0.420818
vt 0.367906 0.419302
vt 0.351986 0.436684
vt 0.351390 0.438772
vt 0.348544 0.434650
vt 0.354453 0.429538
vt 0.358232 0.424151
vt 0.345059 0.437939
vt 0.684905 0.000155
vt 0.328878 0.435787
vt 0.350267 0.441021
vt 0.347233 0.440158
vt 0.341423 0.426597
vt 0.358048 0.453301
vt 0.384000 0.412266
vt 0.354978 0.408293
vt 0.364649 0.411442
vt 0.367691 0.412333
vt 0.359830 0.414089
vt 0.387157 0.443696
vt 0.345251 0.416578
vt 0.370375 0.432352
vt 0.325823 0.406029
vt 0.358958 0.395072
vt 0.000155 0.883067
vt 0.370911 0.407455
vt 0.369298 0.407976
vt 0.371208 0.407100
vt 0.371833 0.406229
vt 0.371157 0.407208
vt 0.372495 0.405349
vt 0.371383 0.406870
vt 0.349032 0.428724
vt 0.371067 0.407268
vt 0.808732 0.091048
vt 0.731249 0.097586
vt 0.848306 0.021938
vt 0.943854 0.082873
vt 0.999845 0.000155
vt 0.832147 0.365678
vt 0.898631 0.308368
vt 0.949238 0.371409
vt 0.782079 0.230155
vt 0.887864 0.165591
vt 0.893247 0.236979
vt 0.729362 0.413083
vt 0.795000 0.300152
vt 0.700438 0.220202
vt 0.769158 0.160158
vt 0.808732 0.863895
vt 0.731249 0.857356
vt 0.715844 0.796048
vt 0.943854 0.872069
vt 0.848306 0.933005
vt 0.898631 0.646574
vt 0.831761 0.589945
vt 0.948712 0.584188
vt 0.887864 0.789352
vt 0.782079 0.724788
vt 0.893247 0.717963
vt 0.795000 0.654790
vt 0.728903 0.542527
vt 0.700438 0.734740
vt 0.692827 0.670417
vt 0.773508 0.477626
vt 0.869295 0.523740
vt 0.999845 0.520493
vt 0.685215 0.606093
vt 0.769158 0.794785
vt 0.773508 0.477316
vt 0.869295 0.431203
vt 0.999845 0.434450
vt 0.692827 0.284526
vt 0.715844 0.158894
vt 0.085302 0.152662
vt 0.684905 0.625488
vt 0.685215 0.348849
vt 0.999845 0.954787
vn 0.6796 0.0533 0.7317
vn 0.4277 -0.5702 0.7014
vn -0.3756 0.8589 -0.3481
vn -0.8888 -0.4186 0.1867
vn 0.7651 0.4893 0.4186
vn 0.7651 -0.4893 0.4186
vn 0.4708 0.6509 0.5956
vn -0.7016 -0.2594 0.6637
vn -0.4841 -0.6455 -0.5907
vn -0.4063 0.9019 0.1467
vn -0.2681 0.9327 -0.2411
vn -0.8524 -0.4341 -0.2915
vn -0.8832 0.4032 -0.2396
vn 0.7406 -0.6521 -0.1623
vn 0.8496 0.4363 -0.2962
vn 0.2681 -0.9327 -0.2411
vn 0.4424 0.8845 -0.1480
vn 0.4063 0.9019 0.1467
vn 0.2693 -0.9316 0.2440
vn -0.4277 -0.5702 0.7014
vn -0.7651 0.4893 0.4186
vn 0.4841 0.6455 -0.5907
vn 0.4277 -0.5702 -0.7014
vn -0.4841 0.6455 -0.5907
vn -0.4063 -0.9019 0.1467
vn 0.3754 0.8589 -0.3484
vn 0.3730 0.8876 0.2702
vn -0.2532 -0.9478 -0.1938
vn -0.3758 -0.8892 0.2609
vn -0.2441 0.9579 0.1512
vn -0.7589 0.5732 0.3091
vn 0.3759 -0.8893 0.2606
vn 0.3813 -0.8596 -0.3401
vn -0.8498 0.4362 -0.2959
vn -0.2681 -0.9327 -0.2411
vn 0.7584 0.5737 0.3093
vn 0.7203 0.5716 -0.3930
vn 0.7304 -0.5657 -0.3828
vn 0.7659 -0.5695 0.2985
vn -0.4277 0.5702 0.7014
vn -0.9528 0.0361 -0.3013
vn 0.0214 -0.9996 -0.0180
vn 0.7016 0.2594 0.6637
vn 0.7016 -0.2594 0.6637
vn -0.7016 0.2594 0.6637
vn -0.0214 0.9996 -0.0180
vn -0.9528 -0.0361 -0.3013
vn -0.1362 -0.9805 0.1417
vn 0.0214 0.9996 -0.0180
vn 0.6719 -0.0518 0.7388
vn -0.7651 -0.4893 0.4186
vn -0.6675 -0.0770 0.7406
vn 0.9389 0.1534 -0.3080
vn -0.7298 -0.5663 -0.3830
vn -0.6818 0.0757 0.7276
vn 0.9528 -0.0361 -0.3013
vn -0.2355 -0.9717 0.0179
vn -0.2511 -0.9677 0.0248
vn -0.0881 -0.9959 0.0211
vn -0.1964 -0.9803 0.0221
vn -0.1470 -0.9891 -0.0014
vn -0.2337 -0.9719 -0.0285
vn 0.2871 -0.9578 0.0135
vn 0.2446 -0.9691 0.0318
vn 0.0914 -0.9955 0.0236
vn 0.2014 -0.9793 0.0200
vn 0.1497 -0.9887 -0.0024
vn 0.1899 -0.9818 -0.0089
vn 0.0802 -0.9966 0.0195
vn 0.0163 -0.9999 -0.0043
vn 0.1358 -0.9902 -0.0321
vn 0.1470 -0.9882 0.0434
vn 0.2719 -0.9618 0.0308
vn 0.2624 -0.9648 -0.0165
vn -0.0727 -0.9972 0.0183
vn -0.0107 -0.9999 -0.0043
vn -0.1325 -0.9907 -0.0320
vn -0.1432 -0.9888 0.0428
vn -0.2709 -0.9622 0.0268
vn -0.2394 -0.9709 -0.0100
vn 0.6675 -0.0770 0.7406
vn 0.4708 -0.6509 0.5956
vn -0.2422 0.9506 -0.1943
vn -0.7655 -0.5699 0.2987
vn 0.8377 0.4703 0.2776
vn 0.7658 0.6211 0.1668
vn 0.8789 -0.4477 0.1645
vn 0.7702 -0.5870 0.2495
vn 0.4277 0.5702 0.7014
vn -0.4277 -0.5702 -0.7014
vn -0.2693 0.9316 0.2440
vn -0.4426 0.8844 -0.1479
vn -0.7399 -0.6528 -0.1623
vn -0.7210 0.5709 -0.3928
vn 0.8525 -0.4340 -0.2912
vn 0.7299 0.6636 -0.1640
vn 0.4457 -0.8832 -0.1461
vn 0.2681 0.9327 -0.2411
vn 0.2693 0.9316 0.2440
vn 0.4063 -0.9019 0.1467
vn -0.4708 -0.6509 0.5956
vn -0.7663 0.6205 0.1668
vn -0.8378 0.4703 0.2772
vn 0.4277 0.5702 -0.7014
vn 0.4841 -0.6455 -0.5907
vn -0.4277 0.5702 -0.7014
vn -0.2693 -0.9316 0.2440
vn 0.2418 0.9507 -0.1944
vn 0.2436 0.9580 0.1512
vn -0.3811 -0.8596 -0.3403
vn -0.2551 -0.9551 0.1507
vn -0.3731 0.8877 0.2698
vn -0.8934 0.4078 0.1884
vn 0.2556 -0.9550 0.1507
vn 0.2537 -0.9477 -0.1937
vn -0.7307 0.6627 -0.1640
vn -0.4456 -0.8832 -0.1461
vn 0.8930 0.4086 0.1888
vn 0.8828 0.4039 -0.2399
vn 0.8785 -0.4131 -0.2400
vn 0.8891 -0.4181 0.1864
vn -0.4708 0.6509 0.5956
vn -0.9389 0.1534 -0.3080
vn 0.1362 -0.9805 0.1417
vn 0.0930 0.9801 -0.1754
vn -0.9389 -0.1534 -0.3080
vn -0.0214 -0.9996 -0.0180
vn -0.0930 0.9801 -0.1754
vn 0.6818 0.0757 0.7276
vn -0.7698 -0.5874 0.2497
vn -0.8789 -0.4477 0.1645
vn -0.6796 0.0533 0.7317
vn 0.9528 0.0361 -0.3013
vn -0.8782 -0.4136 -0.2402
vn -0.6719 -0.0518 0.7388
vn 0.9389 -0.1534 -0.3080
vn -0.2852 -0.9584 0.0128
vn -0.2455 -0.9689 0.0301
vn -0.1306 -0.9904 0.0462
vn -0.2336 -0.9716 0.0366
vn -0.1177 -0.9924 -0.0358
vn -0.1833 -0.9830 -0.0124
vn 0.2341 -0.9720 0.0190
vn 0.2514 -0.9675 0.0253
vn 0.1326 -0.9900 0.0473
vn 0.2456 -0.9686 0.0372
vn 0.1210 -0.9920 -0.0357
vn 0.2457 -0.9690 -0.0267
vn 0.0418 -0.9987 -0.0299
vn 0.0777 -0.9966 0.0268
vn 0.1327 -0.9907 -0.0310
vn 0.1327 -0.9905 0.0375
vn 0.2738 -0.9614 0.0280
vn 0.2376 -0.9713 -0.0112
vn -0.0347 -0.9989 -0.0300
vn -0.0703 -0.9972 0.0253
vn -0.1327 -0.9906 -0.0321
vn -0.1324 -0.9904 0.0384
vn -0.2703 -0.9624 0.0277
vn -0.2575 -0.9662 -0.0139
s off
f 43/1/1 47/2/1 44/3/1
f 38/4/2 13/5/2 4/6/2
f 21/7/3 27/8/3 20/9/3
f 30/10/4 58/11/4 60/12/4
f 3/13/5 37/14/5 39/15/5
f 39/15/6 38/4/6 4/6/6
f 37/14/7 12/16/7 41/17/7
f 64/18/8 63/19/8 62/20/8
f 9/21/9 11/22/9 15/23/9
f 7/24/10 26/25/10 16/26/10
f 5/27/11 27/8/11 14/28/11
f 6/29/12 59/30/12 11/22/12
f 21/7/13 59/30/13 60/31/13
f 2/32/14 35/33/14 23/34/14
f 1/35/15 35/33/15 10/36/15
f 2/32/16 32/37/16 9/21/16
f 1/35/17 27/8/17 18/38/17
f 26/25/18 3/13/18 17/39/18
f 31/40/19 4/6/19 13/5/19
f 13/5/20 62/20/20 8/41/20
f 63/19/21 61/42/21 7/24/21
f 14/28/22 10/36/22 15/23/22
f 9/21/23 10/36/23 2/32/23
f 11/22/24 14/28/24 15/23/24
f 31/40/25 8/41/25 29/43/25
f 27/8/26 19/44/26 18/38/26
f 19/44/27 26/25/27 17/39/27
f 30/10/28 32/37/28 33/45/28
f 30/10/29 31/40/29 29/43/29
f 21/7/30 26/25/30 28/46/30
f 21/7/31 58/11/31 16/26/31
f 31/40/32 25/47/32 24/48/32
f 25/47/33 32/37/33 23/34/33
f 59/30/34 5/27/34 11/22/34
f 32/37/35 6/29/35 9/21/35
f 34/49/36 19/44/36 17/39/36
f 19/44/37 35/33/37 18/38/37
f 35/33/38 25/47/38 23/34/38
f 25/47/39 34/49/39 24/48/39
f 61/42/40 12/16/40 7/24/40
f 64/18/41 65/50/41 61/42/41
f 42/51/42 67/52/42 62/20/42
f 37/14/43 40/53/43 39/15/43
f 40/53/44 38/4/44 39/15/44
f 61/42/45 63/19/45 64/18/45
f 41/17/46 43/1/46 37/14/46
f 67/52/47 64/18/47 62/20/47
f 42/51/48 45/54/48 48/55/48
f 65/50/49 41/17/49 61/42/49
f 44/3/50 48/55/50 45/54/50
f 8/41/51 62/20/51 63/19/51
f 65/50/52 47/2/52 46/56/52
f 40/53/53 43/1/53 44/3/53
f 30/10/54 59/30/54 22/57/54
f 66/58/55 48/55/55 47/2/55
f 40/53/56 45/54/56 38/4/56
f 93/59/57 50/60/57 51/61/57
f 94/62/58 51/61/58 49/63/58
f 86/64/59 57/65/59 87/66/59
f 89/67/60 56/68/60 91/69/60
f 88/70/61 53/71/61 86/64/61
f 89/67/62 55/72/62 52/73/62
f 84/74/63 69/75/63 83/76/63
f 85/77/64 70/78/64 84/74/64
f 76/79/65 77/80/65 78/81/65
f 75/82/66 80/83/66 82/84/66
f 72/85/67 79/86/67 77/80/67
f 80/83/68 74/87/68 81/88/68
f 77/80/69 59/89/69 60/90/69
f 78/81/70 60/90/70 58/91/70
f 72/85/71 81/88/71 73/92/71
f 82/84/72 72/85/72 76/79/72
f 75/82/73 84/74/73 71/93/73
f 71/93/74 83/76/74 74/87/74
f 35/94/75 86/64/75 36/95/75
f 36/95/76 87/66/76 34/96/76
f 53/71/77 90/97/77 89/67/77
f 53/71/78 91/69/78 57/65/78
f 56/68/79 93/59/79 94/62/79
f 52/73/80 92/98/80 93/59/80
f 43/1/81 46/56/81 47/2/81
f 38/4/82 42/51/82 13/5/82
f 21/7/83 28/46/83 27/8/83
f 30/10/84 29/43/84 58/11/84
f 39/15/85 34/49/85 3/13/85
f 34/49/86 17/39/86 3/13/86
f 4/6/87 24/48/87 39/15/87
f 24/48/88 34/49/88 39/15/88
f 37/14/89 3/13/89 12/16/89
f 9/21/90 6/29/90 11/22/90
f 7/24/91 12/16/91 26/25/91
f 5/27/92 20/9/92 27/8/92
f 6/29/93 22/57/93 59/30/93
f 21/7/94 20/9/94 59/30/94
f 2/32/95 10/36/95 35/33/95
f 1/35/96 18/38/96 35/33/96
f 2/32/97 23/34/97 32/37/97
f 1/35/98 14/28/98 27/8/98
f 26/25/99 12/16/99 3/13/99
f 31/40/100 24/48/100 4/6/100
f 13/5/101 42/51/101 62/20/101
f 16/26/102 58/11/102 7/24/102
f 58/11/103 63/19/103 7/24/103
f 14/28/104 1/35/104 10/36/104
f 9/21/105 15/23/105 10/36/105
f 11/22/106 5/27/106 14/28/106
f 31/40/107 13/5/107 8/41/107
f 27/8/108 28/46/108 19/44/108
f 19/44/109 28/46/109 26/25/109
f 30/10/110 22/57/110 32/37/110
f 30/10/111 33/45/111 31/40/111
f 21/7/112 16/26/112 26/25/112
f 21/7/113 60/31/113 58/11/113
f 31/40/114 33/45/114 25/47/114
f 25/47/115 33/45/115 32/37/115
f 59/30/116 20/9/116 5/27/116
f 32/37/117 22/57/117 6/29/117
f 34/49/118 36/99/118 19/44/118
f 19/44/119 36/99/119 35/33/119
f 35/33/120 36/100/120 25/47/120
f 25/47/121 36/100/121 34/49/121
f 61/42/122 41/17/122 12/16/122
f 64/18/123 66/58/123 65/50/123
f 42/51/124 48/55/124 67/52/124
f 41/17/125 46/56/125 43/1/125
f 67/52/126 66/58/126 64/18/126
f 42/51/127 38/4/127 45/54/127
f 65/50/128 46/56/128 41/17/128
f 44/3/129 47/2/129 48/55/129
f 58/11/130 29/43/130 63/19/130
f 29/43/131 8/41/131 63/19/131
f 65/50/132 66/58/132 47/2/132
f 40/53/133 37/14/133 43/1/133
f 30/10/134 60/12/134 59/30/134
f 66/58/135 67/52/135 48/55/135
f 40/53/136 44/3/136 45/54/136
f 93/59/137 92/98/137 50/60/137
f 94/62/138 93/59/138 51/61/138
f 86/64/139 53/71/139 57/65/139
f 89/67/140 52/73/140 56/68/140
f 88/70/141 54/101/141 53/71/141
f 89/67/142 90/97/142 55/72/142
f 84/74/143 70/78/143 69/75/143
f 85/77/144 68/102/144 70/78/144
f 76/79/145 72/85/145 77/80/145
f 75/82/146 71/93/146 80/83/146
f 72/85/147 73/92/147 79/86/147
f 80/83/148 71/93/148 74/87/148
f 77/80/149 79/86/149 59/89/149
f 78/81/150 77/80/150 60/90/150
f 72/85/151 80/83/151 81/88/151
f 82/84/152 80/83/152 72/85/152
f 75/82/153 85/77/153 84/74/153
f 71/93/154 84/74/154 83/76/154
f 35/94/155 88/70/155 86/64/155
f 36/95/156 86/64/156 87/66/156
f 53/71/157 54/101/157 90/97/157
f 53/71/158 89/67/158 91/69/158
f 56/68/159 52/73/159 93/59/159
f 52/73/160 55/72/160 92/98/160
