# Blender v2.93.4 OBJ File: 'birdlow poly.blend'
# www.blender.org
o Cube
v 0.281222 0.210910 -1.168585
v 0.281223 -0.210910 -1.168585
v 0.317696 0.238264 1.154887
v 0.317696 -0.238264 1.154887
v -0.281222 0.210910 -1.168585
v -0.281223 -0.210910 -1.168585
v -0.317696 0.238264 1.154887
v -0.317696 -0.238264 1.154887
v 0.000000 -0.257128 -1.302488
v 0.342848 -0.000000 -1.302488
v -0.342848 -0.000000 -1.302488
v 0.000000 0.290477 1.306157
v 0.000000 -0.290477 1.306157
v 0.000000 0.257128 -1.302488
v 0.000000 0.000000 -1.583497
v -0.376801 0.282591 0.718550
v 0.376801 0.282591 0.718550
v 0.355521 0.268222 -0.606695
v 0.557362 0.431394 0.000000
v -0.355528 0.268205 -0.606695
v -0.557361 0.431583 0.000000
v -0.355952 -0.265802 -0.606695
v 0.355964 -0.265775 -0.606695
v 0.376801 -0.282591 0.718550
v 0.563143 -0.408622 -0.000000
v 0.000000 0.465362 0.638316
v 0.000000 0.461360 -0.512315
v 0.000000 0.566099 0.000000
v -0.376801 -0.282591 0.718550
v -0.563117 -0.408439 -0.000000
v 0.000000 -0.465362 0.638316
v 0.000000 -0.461360 -0.512315
v 0.000000 -0.566098 -0.000000
v 0.620656 0.017241 0.638316
v 0.615412 0.027043 -0.512315
v 0.755034 0.049505 0.000000
v 0.372824 0.049592 1.274672
v 0.372824 -0.049592 1.274672
v 0.422906 0.000000 1.241114
v 0.378827 -0.000000 1.287713
v 0.000000 0.046965 1.572286
v 0.000000 -0.046965 1.572286
v 0.604358 0.067773 2.009074
v 0.614088 -0.000000 2.004979
v 0.604358 -0.067773 2.009074
v 0.000000 0.225603 2.570261
v 0.000000 0.161421 2.563585
v 0.000000 0.097238 2.570261
v 2.591494 0.752936 1.032094
v 2.362489 0.731782 -0.375586
v 2.594336 0.831224 0.267989
v 2.105029 0.505564 -0.246112
v 1.462499 0.280114 -0.246112
v 1.338528 0.182313 -0.829526
v 1.932677 0.340521 -0.638106
v 2.015788 0.366826 0.332043
v 1.342150 0.163769 0.255475
v -0.620637 0.017508 0.638316
v -0.615381 0.027441 -0.512315
v -0.754982 0.050204 0.000000
v -0.372824 0.049592 1.274672
v -0.372824 -0.049592 1.274672
v -0.422906 0.000000 1.241114
v -0.378827 -0.000000 1.287713
v -0.604358 0.067773 2.009074
v -0.614088 -0.000000 2.004979
v -0.604358 -0.067773 2.009074
v -2.572726 0.784251 1.032094
v -2.341699 0.768245 -0.375586
v -2.572735 0.866410 0.267988
v -2.091040 0.534171 -0.246112
v -1.462293 0.283872 -0.246112
v -1.338598 0.185977 -0.829526
v -1.927463 0.354773 -0.638106
v -2.008641 0.383898 0.332043
v -1.342193 0.167140 0.255475
v -1.112809 0.203759 -0.124334
v -0.988916 0.082403 0.444908
v -0.981737 0.130798 -0.672567
v -1.815901 0.322325 -0.246112
v -1.643352 0.249352 -0.733816
v -1.694094 0.242561 0.293759
v -2.139725 0.552365 -0.506846
v -2.325402 0.716317 0.010938
v -2.287668 0.595372 0.682069
v 1.109311 0.199683 -0.123056
v 0.984906 0.080075 0.446895
v 0.977736 0.128086 -0.670920
v 1.816238 0.318250 -0.246112
v 1.644319 0.243117 -0.733816
v 1.695447 0.235617 0.293759
v 2.153427 0.524902 -0.506846
v 2.343913 0.683206 0.010938
v 2.301397 0.569653 0.682069
vt 0.370976 0.407750
vt 0.371926 0.406126
vt 0.371072 0.407464
vt 0.371052 0.405840
vt 0.366170 0.408129
vt 0.367981 0.404714
vt 0.363472 0.427612
vt 0.362158 0.439391
vt 0.357402 0.433922
vt 0.352812 0.421059
vt 0.362641 0.418447
vt 0.358285 0.424399
vt 0.376424 0.410736
vt 0.372852 0.406727
vt 0.371769 0.405242
vt 0.372338 0.412652
vt 0.371218 0.409720
vt 0.367482 0.412321
vt 0.367081 0.412790
vt 0.367344 0.412158
vt 0.346736 0.436171
vt 0.350085 0.435964
vt 0.347998 0.438961
vt 0.369214 0.414537
vt 0.375077 0.420818
vt 0.367906 0.419302
vt 0.351986 0.436684
vt 0.351390 0.438772
vt 0.348544 0.434650
vt 0.354453 0.429538
vt 0.358232 0.424151
vt 0.345059 0.437939
vt 0.684905 0.000155
vt 0.328878 0.435787
vt 0.350267 0.441021
vt 0.347233 0.440158
vt 0.341423 0.426597
vt 0.358048 0.453301
vt 0.384000 0.412266
vt 0.354978 0.408293
vt 0.364649 0.411442
vt 0.367691 0.412333
vt 0.359830 0.414089
vt 0.387157 0.443696
vt 0.345251 0.416578
vt 0.370375 0.432352
vt 0.325823 0.406029
vt 0.358958 0.395072
vt 0.000155 0.883067
vt 0.370911 0.407455
vt 0.369298 0.407976
vt 0.371208 0.407100
vt 0.371833 0.406229
vt 0.371157 0.407208
vt 0.372495 0.405349
vt 0.371383 0.406870
vt 0.349032 0.428724
vt 0.371067 0.407268
vt 0.808732 0.091048
vt 0.731249 0.097586
vt 0.848306 0.021938
vt 0.943854 0.082873
vt 0.999845 0.000155
vt 0.832147 0.365678
vt 0.898631 0.308368
vt 0.949238 0.371409
vt 0.782079 0.230155
vt 0.887864 0.165591
vt 0.893247 0.236979
vt 0.729362 0.413083
vt 0.795000 0.300152
vt 0.700438 0.220202
vt 0.769158 0.160158
vt 0.808732 0.863895
vt 0.731249 0.857356
vt 0.715844 0.796048
vt 0.943854 0.872069
vt 0.848306 0.933005
vt 0.898631 0.646574
vt 0.831761 0.589945
vt 0.948712 0.584188
vt 0.887864 0.789352
vt 0.782079 0.724788
vt 0.893247 0.717963
vt 0.795000 0.654790
vt 0.728903 0.542527
vt 0.700438 0.734740
vt 0.692827 0.670417
vt 0.773508 0.477626
vt 0.869295 0.523740
vt 0.999845 0.520493
vt 0.685215 0.606093
vt 0.769158 0.794785
vt 0.773508 0.477316
vt 0.869295 0.431203
vt 0.999845 0.434450
vt 0.692827 0.284526
vt 0.715844 0.158894
vt 0.085302 0.152662
vt 0.684905 0.625488
vt 0.685215 0.348849
vt 0.999845 0.954787
vn 0.6796 0.0533 0.7317
vn 0.4277 -0.5702 0.7014
vn -0.3719 0.8578 -0.3547
vn -0.9088 -0.3802 0.1718
vn 0.7651 0.4893 0.4186
vn 0.7651 -0.4893 0.4186
vn 0.4708 0.6509 0.5956
vn -0.7016 -0.2594 0.6637
vn -0.4841 -0.6455 -0.5907
vn -0.4063 0.9019 0.1467
vn -0.2681 0.9327 -0.2411
vn -0.8583 -0.4293 -0.2811
vn -0.8588 0.4450 -0.2538
vn 0.7639 -0.6245 -0.1626
vn 0.8437 0.4409 -0.3061
vn 0.2681 -0.9327 -0.2411
vn 0.4413 0.8850 -0.1486
vn 0.4063 0.9019 0.1467
vn 0.2693 -0.9316 0.2440
vn -0.4277 -0.5702 0.7014
vn -0.7651 0.4893 0.4186
vn 0.4841 0.6455 -0.5907
vn 0.4277 -0.5702 -0.7014
vn -0.4841 0.6455 -0.5907
vn -0.4063 -0.9019 0.1467
vn 0.3720 0.8579 -0.3545
vn 0.3710 0.8864 0.2768
vn -0.2645 -0.9448 -0.1932
vn -0.3778 -0.8904 0.2539
vn -0.2319 0.9608 0.1516
vn -0.7447 0.5912 0.3097
vn 0.3778 -0.8903 0.2541
vn 0.3844 -0.8607 -0.3339
vn -0.8436 0.4410 -0.3063
vn -0.2681 -0.9327 -0.2411
vn 0.7449 0.5910 0.3096
vn 0.6981 0.5984 -0.3932
vn 0.7492 -0.5403 -0.3831
vn 0.7780 -0.5528 0.2987
vn -0.4277 0.5702 0.7014
vn -0.9528 0.0361 -0.3013
vn 0.0214 -0.9996 -0.0180
vn 0.7016 0.2594 0.6637
vn 0.7016 -0.2594 0.6637
vn -0.7016 0.2594 0.6637
vn -0.0214 0.9996 -0.0180
vn -0.9528 -0.0361 -0.3013
vn -0.1362 -0.9805 0.1417
vn 0.0214 0.9996 -0.0180
vn 0.6719 -0.0518 0.7388
vn -0.7651 -0.4893 0.4186
vn -0.6675 -0.0770 0.7406
vn 0.9389 0.1534 -0.3080
vn -0.7496 -0.5399 -0.3829
vn -0.6818 0.0757 0.7276
vn 0.9528 -0.0361 -0.3013
vn 0.5642 -0.8221 -0.0762
vn 0.5992 -0.7967 -0.0794
vn 0.1346 -0.9753 -0.1753
vn 0.3841 -0.9216 -0.0551
vn 0.2439 -0.9674 0.0678
vn 0.5407 -0.8336 0.1132
vn -0.7463 -0.6632 -0.0576
vn -0.5965 -0.7951 -0.1097
vn -0.1385 -0.9743 -0.1776
vn -0.4137 -0.9095 -0.0410
vn -0.2460 -0.9668 0.0699
vn -0.3420 -0.9395 0.0196
vn -0.3756 -0.9248 -0.0612
vn -0.1655 -0.9861 -0.0157
vn -0.1627 -0.9781 0.1296
vn -0.2241 -0.9597 -0.1697
vn -0.6735 -0.7331 -0.0946
vn -0.6561 -0.7514 0.0701
vn 0.3716 -0.9264 -0.0607
vn 0.1619 -0.9867 -0.0158
vn 0.1065 -0.9877 0.1146
vn 0.2142 -0.9616 -0.1717
vn 0.6458 -0.7585 -0.0874
vn 0.5653 -0.8237 0.0438
vn 0.6675 -0.0770 0.7406
vn 0.4708 -0.6509 0.5956
vn -0.2301 0.9534 -0.1949
vn -0.7782 -0.5525 0.2986
vn 0.8336 0.4720 0.2870
vn 0.7506 0.6394 0.1666
vn 0.8789 -0.4477 0.1645
vn 0.7835 -0.5729 0.2407
vn 0.4277 0.5702 0.7014
vn -0.4277 -0.5702 -0.7014
vn -0.2693 0.9316 0.2440
vn -0.4413 0.8850 -0.1486
vn -0.7644 -0.6239 -0.1626
vn -0.6977 0.5988 -0.3933
vn 0.8582 -0.4294 -0.2813
vn 0.7023 0.6928 -0.1635
vn 0.4465 -0.8829 -0.1456
vn 0.2681 0.9327 -0.2411
vn 0.2693 0.9316 0.2440
vn 0.4063 -0.9019 0.1467
vn -0.4708 -0.6509 0.5956
vn -0.7503 0.6397 0.1666
vn -0.8335 0.4720 0.2871
vn 0.4277 0.5702 -0.7014
vn 0.4841 -0.6455 -0.5907
vn -0.4277 0.5702 -0.7014
vn -0.2693 -0.9316 0.2440
vn 0.2304 0.9534 -0.1949
vn 0.2322 0.9608 0.1516
vn -0.3844 -0.8608 -0.3336
vn -0.2665 -0.9520 0.1502
vn -0.3710 0.8864 0.2770
vn -0.8688 0.4502 0.2059
vn 0.2663 -0.9521 0.1503
vn 0.2642 -0.9449 -0.1932
vn -0.7018 0.6934 -0.1635
vn -0.4464 -0.8829 -0.1456
vn 0.8691 0.4499 0.2057
vn 0.8590 0.4447 -0.2536
vn 0.8980 -0.3761 -0.2282
vn 0.9086 -0.3806 0.1720
vn -0.4708 0.6509 0.5956
vn -0.9389 0.1534 -0.3080
vn 0.1362 -0.9805 0.1417
vn 0.0930 0.9801 -0.1754
vn -0.9389 -0.1534 -0.3080
vn -0.0214 -0.9996 -0.0180
vn -0.0930 0.9801 -0.1754
vn 0.6818 0.0757 0.7276
vn -0.7838 -0.5726 0.2405
vn -0.8789 -0.4477 0.1645
vn -0.6796 0.0533 0.7317
vn 0.9528 0.0361 -0.3013
vn -0.8982 -0.3758 -0.2281
vn -0.6719 -0.0518 0.7388
vn 0.9389 -0.1534 -0.3080
vn 0.7189 -0.6931 -0.0526
vn 0.5803 -0.8082 -0.1000
vn 0.1555 -0.9699 -0.1877
vn 0.5405 -0.8333 -0.1165
vn 0.1992 -0.9725 0.1207
vn 0.3086 -0.9505 0.0377
vn -0.5796 -0.8105 -0.0844
vn -0.6199 -0.7802 -0.0839
vn -0.1567 -0.9696 -0.1881
vn -0.6058 -0.7868 -0.1182
vn -0.2030 -0.9718 0.1200
vn -0.6065 -0.7878 0.1074
vn -0.2940 -0.9541 0.0567
vn -0.3560 -0.9267 -0.1201
vn -0.1075 -0.9881 0.1098
vn -0.1073 -0.9868 -0.1216
vn -0.6737 -0.7330 -0.0942
vn -0.5774 -0.8149 0.0510
vn 0.2905 -0.9553 0.0551
vn 0.3526 -0.9283 -0.1179
vn 0.1536 -0.9793 0.1315
vn 0.1063 -0.9862 -0.1272
vn 0.6495 -0.7560 -0.0812
vn 0.6198 -0.7827 0.0570
s off
f 43/1/1 47/2/1 44/3/1
f 38/4/2 13/5/2 4/6/2
f 21/7/3 27/8/3 20/9/3
f 30/10/4 58/11/4 60/12/4
f 3/13/5 37/14/5 39/15/5
f 39/15/6 38/4/6 4/6/6
f 37/14/7 12/16/7 41/17/7
f 64/18/8 63/19/8 62/20/8
f 9/21/9 11/22/9 15/23/9
f 7/24/10 26/25/10 16/26/10
f 5/27/11 27/8/11 14/28/11
f 6/29/12 59/30/12 11/22/12
f 21/7/13 59/30/13 60/31/13
f 2/32/14 35/33/14 23/34/14
f 1/35/15 35/33/15 10/36/15
f 2/32/16 32/37/16 9/21/16
f 1/35/17 27/8/17 18/38/17
f 26/25/18 3/13/18 17/39/18
f 31/40/19 4/6/19 13/5/19
f 13/5/20 62/20/20 8/41/20
f 63/19/21 61/42/21 7/24/21
f 14/28/22 10/36/22 15/23/22
f 9/21/23 10/36/23 2/32/23
f 11/22/24 14/28/24 15/23/24
f 31/40/25 8/41/25 29/43/25
f 27/8/26 19/44/26 18/38/26
f 19/44/27 26/25/27 17/39/27
f 30/10/28 32/37/28 33/45/28
f 30/10/29 31/40/29 29/43/29
f 21/7/30 26/25/30 28/46/30
f 21/7/31 58/11/31 16/26/31
f 31/40/32 25/47/32 24/48/32
f 25/47/33 32/37/33 23/34/33
f 59/30/34 5/27/34 11/22/34
f 32/37/35 6/29/35 9/21/35
f 34/49/36 19/44/36 17/39/36
f 19/44/37 35/33/37 18/38/37
f 35/33/38 25/47/38 23/34/38
f 25/47/39 34/49/39 24/48/39
f 61/42/40 12/16/40 7/24/40
f 64/18/41 65/50/41 61/42/41
f 42/51/42 67/52/42 62/20/42
f 37/14/43 40/53/43 39/15/43
f 40/53/44 38/4/44 39/15/44
f 61/42/45 63/19/45 64/18/45
f 41/17/46 43/1/46 37/14/46
f 67/52/47 64/18/47 62/20/47
f 42/51/48 45/54/48 48/55/48
f 65/50/49 41/17/49 61/42/49
f 44/3/50 48/55/50 45/54/50
f 8/41/51 62/20/51 63/19/51
f 65/50/52 47/2/52 46/56/52
f 40/53/53 43/1/53 44/3/53
f 30/10/54 59/30/54 22/57/54
f 66/58/55 48/55/55 47/2/55
f 40/53/56 45/54/56 38/4/56
f 93/59/57 50/60/57 51/61/57
f 94/62/58 51/61/58 49/63/58
f 86/64/59 57/65/59 87/66/59
f 89/67/60 56/68/60 91/69/60
f 88/70/61 53/71/61 86/64/61
f 89/67/62 55/72/62 52/73/62
f 84/74/63 69/75/63 83/76/63
f 85/77/64 70/78/64 84/74/64
f 76/79/65 77/80/65 78/81/65
f 75/82/66 80/83/66 82/84/66
f 72/85/67 79/86/67 77/80/67
f 80/83/68 74/87/68 81/88/68
f 77/80/69 59/89/69 60/90/69
f 78/81/70 60/90/70 58/91/70
f 72/85/71 81/88/71 73/92/71
f 82/84/72 72/85/72 76/79/72
f 75/82/73 84/74/73 71/93/73
f 71/93/74 83/76/74 74/87/74
f 35/94/75 86/64/75 36/95/75
f 36/95/76 87/66/76 34/96/76
f 53/71/77 90/97/77 89/67/77
f 53/71/78 91/69/78 57/65/78
f 56/68/79 93/59/79 94/62/79
f 52/73/80 92/98/80 93/59/80
f 43/1/81 46/56/81 47/2/81
f 38/4/82 42/51/82 13/5/82
f 21/7/83 28/46/83 27/8/83
f 30/10/84 29/43/84 58/11/84
f 39/15/85 34/49/85 3/13/85
f 34/49/86 17/39/86 3/13/86
f 4/6/87 24/48/87 39/15/87
f 24/48/88 34/49/88 39/15/88
f 37/14/89 3/13/89 12/16/89
f 9/21/90 6/29/90 11/22/90
f 7/24/91 12/16/91 26/25/91
f 5/27/92 20/9/92 27/8/92
f 6/29/93 22/57/93 59/30/93
f 21/7/94 20/9/94 59/30/94
f 2/32/95 10/36/95 35/33/95
f 1/35/96 18/38/96 35/33/96
f 2/32/97 23/34/97 32/37/97
f 1/35/98 14/28/98 27/8/98
f 26/25/99 12/16/99 3/13/99
f 31/40/100 24/48/100 4/6/100
f 13/5/101 42/51/101 62/20/101
f 16/26/102 58/11/102 7/24/102
f 58/11/103 63/19/103 7/24/103
f 14/28/104 1/35/104 10/36/104
f 9/21/105 15/23/105 10/36/105
f 11/22/106 5/27/106 14/28/106
f 31/40/107 13/5/107 8/41/107
f 27/8/108 28/46/108 19/44/108
f 19/44/109 28/46/109 26/25/109
f 30/10/110 22/57/110 32/37/110
f 30/10/111 33/45/111 31/40/111
f 21/7/112 16/26/112 26/25/112
f 21/7/113 60/31/113 58/11/113
f 31/40/114 33/45/114 25/47/114
f 25/47/115 33/45/115 32/37/115
f 59/30/116 20/9/116 5/27/116
f 32/37/117 22/57/117 6/29/117
f 34/49/118 36/99/118 19/44/118
f 19/44/119 36/99/119 35/33/119
f 35/33/120 36/100/120 25/47/120
f 25/47/121 36/100/121 34/49/121
f 61/42/122 41/17/122 12/16/122
f 64/18/123 66/58/123 65/50/123
f 42/51/124 48/55/124 67/52/124
f 41/17/125 46/56/125 43/1/125
f 67/52/126 66/58/126 64/18/126
f 42/51/127 38/4/127 45/54/127
f 65/50/128 46/56/128 41/17/128
f 44/3/129 47/2/129 48/55/129
f 58/11/130 29/43/130 63/19/130
f 29/43/131 8/41/131 63/19/131
f 65/50/132 66/58/132 47/2/132
f 40/53/133 37/14/133 43/1/133
f 30/10/134 60/12/134 59/30/134
f 66/58/135 67/52/135 48/55/135
f 40/53/136 44/3/136 45/54/136
f 93/59/137 92/98/137 50/60/137
f 94/62/138 93/59/138 51/61/138
f 86/64/139 53/71/139 57/65/139
f 89/67/140 52/73/140 56/68/140
f 88/70/141 54/101/141 53/71/141
f 89/67/142 90/97/142 55/72/142
f 84/74/143 70/78/143 69/75/143
f 85/77/144 68/102/144 70/78/144
f 76/79/145 72/85/145 77/80/145
f 75/82/146 71/93/146 80/83/146
f 72/85/147 73/92/147 79/86/147
f 80/83/148 71/93/148 74/87/148
f 77/80/149 79/86/149 59/89/149
f 78/81/150 77/80/150 60/90/150
f 72/85/151 80/83/151 81/88/151
f 82/84/152 80/83/152 72/85/152
f 75/82/153 85/77/153 84/74/153
f 71/93/154 84/74/154 83/76/154
f 35/94/155 88/70/155 86/64/155
f 36/95/156 86/64/156 87/66/156
f 53/71/157 54/101/157 90/97/157
f 53/71/158 89/67/158 91/69/158
f 56/68/159 52/73/159 93/59/159
f 52/73/160 55/72/160 92/98/160
